/* XPM */
static const char * module_xpm[] = {
"16 16 2 1",
"  c #FFFF8C",
". c #000000",
"                ",
"                ",
"                ",
"                ",
" ......   ....  ",
" .       .    . ",
" .       .    . ",
" .....   ...... ",
" .       .    . ",
" .       .    . ",
" ......  .    . ",
"                ",
"                ",
"                ",
"                ",
"                "};
