/* XPM */
static const char * firfilter_xpm[] = {
"16 16 2 1",
"  c #FFFF8C",
". c #000000",
"                ",
"                ",
"                ",
"                ",
" ..... . .....  ",
" .     . .    . ",
" .     . .    . ",
" ...   . .....  ",
" .     . .   .  ",
" .     . .    . ",
" .     . .    . ",
"                ",
"                ",
"                ",
"                ",
"                "};
