/* XPM */
static const char* module_xpm[] = {
"16 16 2 1",
"  c #C5C5C5",
". c #000000",
"                ",
"                ",
"                ",
"                ",
"   ....  ...... ",
"  .     .       ",
" .      .       ",
" .       .....  ",
" .            . ",
"  .           . ",
"   .... ......  ",
"                ",
"                ",
"                ",
"                ",
"                "};