/* XPM */								
static const char* XPM_Beam[] = {	
"21 15 2 1",				
"  c #9933FF",							
"+ c #FF0000",
"                     ",
"   ++++++++++++      ",
"   +           +     ",
"   +            +    ",
"   +             +   ",
"   +             +   ",
"   +            +    ",
"   +++++++++++++     ",
"   +           +     ",
"   +            +    ",
"   +             +   ",
"   +             +   ",
"   +            +    ",
"   +++++++++++++     ",
"                     "
};