/* XPM */
static const char* module_xpm[] = {
"32 32 2 1",
"  c #A5CAA5",
". c #000000",
"                                ",
"             .......            ",
"           ...     ....         ",
"         ...          .         ",
"        .....         ..        ",
"        .   .          ..       ",
"        . . .           .       ",
"        .   .           ..      ",
"        .....            .      ",
"      ....         ..    .      ",
"     ..             .    .      ",
"     ..            ...   .      ",
"      ...           .    .      ",
"        .          ..    .      ",
"        .         ..     .      ",
"        ..               .      ",
"         .              ..      ",
"         .              .       ",
"         ..            ..       ",
"          ..          ..        ",
"           ...        .         ",
"            ..       .          ",
"            .        .          ",
"            .        .          ",
"           ..        ..         ",
"          ..          ..        ",
"        ...            .        ",
"       ..              ..       ",
"      ..                .       ",
"      .                 .       ",
"      .                 .       ",
"      .                 .       "};
