/* XPM */
static const char * module_xpm[] = {
"16 16 2 1",
"  c #ADD8E6",
". c #000000",
"                ",
"                ",
"                ",
"                ",
"  ......  ...   ",
" .       .   .  ",
" .       .   .  ",
"  .....  ....   ",
"       . .   .  ",
"       . .   .  ",
" ......  .   .  ",
"                ",
"                ",
"                ",
"                ",
"                "};
